<svg id="Layer_1" data-name="Layer 1" xmlns="http://www.w3.org/2000/svg" viewBox="0 0 600 93.37009"><defs><style>.cls-1{fill:#00a1a4;}</style></defs><path class="cls-1" d="M469.13808,93.25414a7.54715,7.54715,0,1,1,7.57-7.52429A7.5472,7.5472,0,0,1,469.13808,93.25414ZM599,45.433a25.15554,25.15554,0,0,1-25.14636,25.16474l-4.7705.00178a20.12581,20.12581,0,0,1-20.07579-18.60808,1.40025,1.40025,0,0,1,1.39278-1.50923l7.3006-.00263a1.39545,1.39545,0,0,1,1.38675,1.2249,10.06389,10.06389,0,0,0,9.992,8.833l4.77048-.00177a15.09348,15.09348,0,0,0,15.088-15.099v-.00007a15.0935,15.0935,0,0,0-15.09906-15.088l-19.86392.00728A15.09339,15.09339,0,0,0,538.8871,45.45483l0,.09329h-.00146A25.15467,25.15467,0,0,1,513.849,70.62435l-.09062.00012h-.029l-.00011-.00043a25.1155,25.1155,0,0,1-20.0275-10.05979,25.118,25.118,0,0,1-20.19155,10.06016l-25.14989-.06684A25.11506,25.11506,0,0,1,428.32823,60.5293,25.11611,25.11611,0,0,1,408.2958,70.62435l-.09063.00012h-.029l-.0001-.00043a25.15427,25.15427,0,0,1-25.05748-25.003h-.00158l0-.09328a15.09342,15.09342,0,0,0-15.09892-15.08788l-25.15017.00925a15.09354,15.09354,0,1,0,.011,30.18707l10.05671-.00367a10.064,10.064,0,0,0,9.98552-8.84034,1.39547,1.39547,0,0,1,1.38585-1.22588l7.30061-.00269a1.4002,1.4002,0,0,1,1.39388,1.50813,20.12583,20.12583,0,0,1-20.06217,18.62283l-10.05672.00367a25.15559,25.15559,0,0,1-.01842-50.31117l25.15-.00919a25.15454,25.15454,0,0,1,25.1624,24.95785h.0021l-.00024.09328a15.047,15.047,0,1,0,30.0935-.011l0-.05356c0-.00986-.00031-.01959-.00029-.02945l.00025-.09181-.01609-43.70255a1.40594,1.40594,0,0,1,1.4018-1.40682c1.91588-.00563,5.33209-.01359,7.25122-.018a1.40593,1.40593,0,0,1,1.409,1.40584l.0161,43.862,0,.00391a15.09318,15.09318,0,0,0,15.053,15.108l25.15008.06685A15.09351,15.09351,0,0,0,488.6706,45.50907V45.509a15.09356,15.09356,0,0,0-15.05337-15.1336l-10.05668-.02669a10.06389,10.06389,0,0,0-10.01221,8.81009,1.39541,1.39541,0,0,1-1.38955,1.22166l-7.30058-.0194a1.40017,1.40017,0,0,1-1.38932-1.51229,20.12585,20.12585,0,0,1,20.11838-18.56211l10.05669.02675a25.15442,25.15442,0,0,1,25.08663,25.02236h.00134l-.00025.09328a15.047,15.047,0,1,0,30.0935-.011h.00035a25.15533,25.15533,0,0,1,25.146-25.12416l19.86372-.00734A25.1556,25.1556,0,0,1,599,45.433Z"/><path class="cls-1" d="M177.007,20.244h0a25.134,25.134,0,0,0-25.20984,25.05786l-.011,3.63246a1.39632,1.39632,0,0,0,1.3921,1.40054l7.26068.022a1.39632,1.39632,0,0,0,1.40055-1.39211l.011-3.63246a15.0806,15.0806,0,0,1,15.12611-15.03493h0a15.08059,15.08059,0,0,1,15.03491,15.1261v.00193a15.08044,15.08044,0,0,1-15.126,15.03476l-20.10735-.06073a15.08036,15.08036,0,0,1-15.03463-15.11108l.00014-.015v-.00005c.00005-.0149-.00016-.02973-.00015-.04461l.00015-.04843h-.0003a25.1337,25.1337,0,0,0-25.05756-25.11679l-10.04805-.03039a20.10851,20.10851,0,0,0-20.1079,18.53875,1.399,1.399,0,0,0,1.38758,1.51156l7.2943.02205a1.39426,1.39426,0,0,0,1.3888-1.22013,10.05532,10.05532,0,0,1,10.00683-8.79889l10.048.03039a15.08035,15.08035,0,0,1,15.03467,15.10108l-.00007.02493c0,.0056.00007.01118.00006.01675a15.08044,15.08044,0,0,1-15.12584,15.01827l-25.12846-.076A15.08045,15.08045,0,0,1,76.401,45.0759l.00028-.09321-.00832,0A25.134,25.134,0,0,0,51.26235,20.24572l-25.12839,0A25.134,25.134,0,0,0,1,45.37966v0a25.134,25.134,0,0,0,25.134,25.134h10.0481A20.1085,20.1085,0,0,0,56.23382,51.91421a1.399,1.399,0,0,0-1.39215-1.50736H47.54735a1.39425,1.39425,0,0,0-1.38512,1.22433,10.05528,10.05528,0,0,1-9.98017,8.82908H26.134A15.08057,15.08057,0,0,1,11.05339,45.37968v0A15.08057,15.08057,0,0,1,26.134,30.29908H51.26254A15.08044,15.08044,0,0,1,66.343,45.37952v.09321h.0074A25.13389,25.13389,0,0,0,91.40562,70.25518l25.12826.076a25.09554,25.09554,0,0,0,20.13745-9.99072A25.0957,25.0957,0,0,0,156.748,70.45274l20.10687.06081a25.13406,25.13406,0,0,0,25.21-25.05795l0-.00171A25.134,25.134,0,0,0,177.007,20.244Z"/><circle class="cls-1" cx="169.50344" cy="7.6566" r="7.54068"/><circle class="cls-1" cx="184.58504" cy="7.7022" r="7.54069" transform="translate(58.28003 142.52803) rotate(-49.25832)"/><circle class="cls-1" cx="93.86507" cy="85.6223" r="7.54068"/><path class="cls-1" d="M124.0507,78.17286a7.54066,7.54066,0,0,0-7.56342,7.51518,7.53207,7.53207,0,1,0,0,.00532,7.54067,7.54067,0,1,0,7.56343-7.5205Z"/><path class="cls-1" d="M272.53561,20.50416,252.407,20.47377a20.0142,20.0142,0,0,0-10.062,2.66038l0-21.39366A1.40514,1.40514,0,0,0,240.93994.33536l-7.29184,0A1.40513,1.40513,0,0,0,232.243,1.74052l.00006,47.18985a1.40514,1.40514,0,0,0,1.40514,1.4085l7.239-.00007a1.40514,1.40514,0,0,0,1.40512-1.40513l.00006-8.383a10.054,10.054,0,0,1,10.08434-10.02356l20.12856.03039a15.08059,15.08059,0,0,1,15.03492,15.12611v0A15.08059,15.08059,0,0,1,272.414,60.71856l-35.209-.076a15.08043,15.08043,0,0,1-15.03477-15.126L222.17033,1.677a1.40473,1.40473,0,0,0-1.4011-1.40511c-1.91424-.00492-5.32752-.01165-7.245-.01532a1.40469,1.40469,0,0,0-1.40732,1.40513l0,43.82429a25.13407,25.13407,0,0,0,25.058,25.21l35.2088.076A25.134,25.134,0,0,0,297.59347,45.714v0A25.134,25.134,0,0,0,272.53561,20.50416Z"/></svg>